<svg width="78" height="72" viewBox="0 0 78 72" fill="none" xmlns="http://www.w3.org/2000/svg">
<ellipse cx="39" cy="36.5" rx="30" ry="27.5" fill="white"/>
<path d="M31.5324 45.75H46.4676V44.25H31.5324V45.75ZM46.4676 45.75C52.7564 45.75 57.75 50.4423 57.75 56.1068H59.25C59.25 49.5031 53.4695 44.25 46.4676 44.25V45.75ZM31.5324 44.25C24.5305 44.25 18.75 49.5031 18.75 56.1068H20.25C20.25 50.4423 25.2436 45.75 31.5324 45.75V44.25ZM48 27C48 31.501 44.0282 35.25 39 35.25V36.75C44.7413 36.75 49.5 32.4402 49.5 27H48ZM39 35.25C33.9718 35.25 30 31.501 30 27H28.5C28.5 32.4402 33.2587 36.75 39 36.75V35.25ZM30 27C30 22.499 33.9718 18.75 39 18.75V17.25C33.2587 17.25 28.5 21.5598 28.5 27H30ZM39 18.75C44.0282 18.75 48 22.499 48 27H49.5C49.5 21.5598 44.7413 17.25 39 17.25V18.75ZM67.5 36C67.5 50.4421 54.7978 62.25 39 62.25V63.75C55.5109 63.75 69 51.3813 69 36H67.5ZM39 62.25C23.2022 62.25 10.5 50.4421 10.5 36H9C9 51.3813 22.4891 63.75 39 63.75V62.25ZM10.5 36C10.5 21.5579 23.2022 9.75 39 9.75V8.25C22.4891 8.25 9 20.6187 9 36H10.5ZM39 9.75C54.7978 9.75 67.5 21.5579 67.5 36H69C69 20.6187 55.5109 8.25 39 8.25V9.75Z" fill="black" fill-opacity="0.49"/>
</svg>
